<?xml version="1.0" encoding="UTF-8" standalone="yes"?>
<svg xmlns="http://www.w3.org/2000/svg" xmlns:xlink="http://www.w3.org/1999/xlink" width="64px" height="64px" viewBox="0 0 64 64" version="1.1" fill="#000000">
  <g id="surface575250">
    <path style=" stroke:none;fill-rule:nonzero;fill:#000000;fill-opacity:1;" d="M 3 8 C 1.347656 8 0 9.347656 0 11 L 0 52 C 0 54.207031 1.792969 56 4 56 L 58 56 C 60.207031 56 62 54.207031 62 52 L 62 21 C 62 19.347656 60.652344 18 59 18 L 56 18 L 56 17 C 56 15.347656 54.652344 14 53 14 L 27.707031 14 C 26.910156 14 26.164062 13.691406 25.597656 13.132812 L 21.875 9.445312 C 20.929688 8.511719 19.679688 8 18.355469 8 Z M 3 10 L 18.355469 10 C 19.152344 10 19.898438 10.308594 20.464844 10.867188 L 24.1875 14.554688 C 25.132812 15.488281 26.382812 16 27.707031 16 L 53 16 C 53.550781 16 54 16.449219 54 17 L 54 52 C 54 52.617188 54.222656 53.339844 54.632812 54 L 4 54 C 2.898438 54 2 53.101562 2 52 L 2 46 L 43 46 C 43.550781 46 44 45.554688 44 45 C 44 44.445312 43.550781 44 43 44 L 2 44 L 2 11 C 2 10.449219 2.449219 10 3 10 Z M 56 20 L 59 20 C 59.550781 20 60 20.449219 60 21 L 60 52 C 60 53.101562 59.101562 54 58 54 C 56.753906 54 56 52.609375 56 52 Z M 26.878906 20.007812 C 26.722656 20.027344 26.566406 20.085938 26.433594 20.175781 C 26.160156 20.363281 26 20.671875 26 21 L 26 32 C 22.691406 32 20 34.242188 20 37 C 20 39.757812 22.691406 42 26 42 C 29.308594 42 32 39.757812 32 37 L 32 29.652344 L 36.59375 31.691406 C 36.902344 31.828125 37.261719 31.796875 37.546875 31.613281 C 37.828125 31.429688 38 31.117188 38 30.777344 L 38 24.777344 C 38 24.363281 37.742188 23.988281 37.355469 23.84375 L 27.355469 20.0625 C 27.199219 20.007812 27.035156 19.988281 26.878906 20.007812 Z M 28 22.445312 L 36 25.46875 L 36 29.238281 L 31.40625 27.199219 C 31.097656 27.058594 30.738281 27.089844 30.453125 27.269531 C 30.171875 27.457031 30 27.773438 30 28.109375 L 30 37 C 30 38.652344 28.207031 40 26 40 C 23.792969 40 22 38.652344 22 37 C 22 35.347656 23.792969 34 26 34 C 26.277344 34 26.5625 34.019531 26.84375 34.066406 C 27.128906 34.113281 27.425781 34.03125 27.648438 33.839844 C 27.871094 33.652344 28 33.375 28 33.078125 Z M 47 44 C 46.449219 44 46 44.445312 46 45 C 46 45.554688 46.449219 46 47 46 L 51 46 C 51.550781 46 52 45.554688 52 45 C 52 44.445312 51.550781 44 51 44 Z M 5 48 C 4.449219 48 4 48.445312 4 49 L 4 51 C 4 51.554688 4.449219 52 5 52 C 5.550781 52 6 51.554688 6 51 L 6 49 C 6 48.445312 5.550781 48 5 48 Z M 10 48 C 9.449219 48 9 48.445312 9 49 L 9 51 C 9 51.554688 9.449219 52 10 52 C 10.550781 52 11 51.554688 11 51 L 11 49 C 11 48.445312 10.550781 48 10 48 Z M 15 48 C 14.449219 48 14 48.445312 14 49 L 14 51 C 14 51.554688 14.449219 52 15 52 C 15.550781 52 16 51.554688 16 51 L 16 49 C 16 48.445312 15.550781 48 15 48 Z M 20 48 C 19.449219 48 19 48.445312 19 49 L 19 51 C 19 51.554688 19.449219 52 20 52 C 20.550781 52 21 51.554688 21 51 L 21 49 C 21 48.445312 20.550781 48 20 48 Z M 25 48 C 24.449219 48 24 48.445312 24 49 L 24 51 C 24 51.554688 24.449219 52 25 52 C 25.550781 52 26 51.554688 26 51 L 26 49 C 26 48.445312 25.550781 48 25 48 Z M 30 48 C 29.449219 48 29 48.445312 29 49 L 29 51 C 29 51.554688 29.449219 52 30 52 C 30.550781 52 31 51.554688 31 51 L 31 49 C 31 48.445312 30.550781 48 30 48 Z M 35 48 C 34.449219 48 34 48.445312 34 49 L 34 51 C 34 51.554688 34.449219 52 35 52 C 35.550781 52 36 51.554688 36 51 L 36 49 C 36 48.445312 35.550781 48 35 48 Z M 40 48 C 39.449219 48 39 48.445312 39 49 L 39 51 C 39 51.554688 39.449219 52 40 52 C 40.550781 52 41 51.554688 41 51 L 41 49 C 41 48.445312 40.550781 48 40 48 Z M 45 48 C 44.449219 48 44 48.445312 44 49 L 44 51 C 44 51.554688 44.449219 52 45 52 C 45.550781 52 46 51.554688 46 51 L 46 49 C 46 48.445312 45.550781 48 45 48 Z M 50 48 C 49.449219 48 49 48.445312 49 49 L 49 51 C 49 51.554688 49.449219 52 50 52 C 50.550781 52 51 51.554688 51 51 L 51 49 C 51 48.445312 50.550781 48 50 48 Z M 50 48 "/>
  </g>
</svg>
